<?xml version="1.0" standalone="no"?>
<!DOCTYPE svg PUBLIC "-//W3C//DTD SVG 20010904//EN"
 "http://www.w3.org/TR/2001/REC-SVG-20010904/DTD/svg10.dtd">
<svg version="1.0" xmlns="http://www.w3.org/2000/svg"
 width="512.000000pt" height="512.000000pt" viewBox="0 0 512.000000 512.000000"
 preserveAspectRatio="xMidYMid meet">
<metadata>
Created by potrace 1.11, written by Peter Selinger 2001-2013
</metadata>
<g transform="translate(0.000000,512.000000) scale(0.100000,-0.100000)"
fill="#000000" stroke="none">
<path d="M2375 4914 c-479 -50 -873 -200 -1232 -468 -124 -92 -316 -275 -333
-316 -31 -74 31 -160 116 -160 44 0 48 3 158 108 187 180 387 316 610 415 848
379 1839 163 2456 -533 40 -45 57 -71 48 -74 -7 -2 -67 -13 -133 -26 -126 -23
-364 -97 -477 -148 -73 -34 -88 -51 -118 -136 -49 -144 -152 -301 -259 -397
l-56 -50 -7 53 c-4 29 -11 136 -17 238 -12 209 -20 251 -57 275 -70 46 -111
32 -284 -95 l-108 -80 -121 0 -120 0 -113 81 c-62 44 -130 90 -152 101 -71 36
-145 5 -166 -71 -6 -20 -15 -121 -21 -226 -6 -104 -14 -210 -17 -235 l-7 -45
-76 75 c-110 110 -185 228 -239 378 -15 40 -35 73 -57 92 -170 150 -781 267
-1283 245 -169 -7 -210 -16 -243 -53 -27 -29 -33 -92 -13 -130 19 -37 34 -46
119 -72 121 -38 197 -134 197 -252 0 -108 -46 -174 -162 -232 -77 -38 -105
-80 -94 -141 9 -46 57 -95 93 -95 23 0 25 -3 19 -32 -18 -102 -28 -289 -23
-428 20 -498 178 -944 476 -1345 96 -128 328 -360 456 -456 582 -433 1293
-579 1994 -408 599 146 1129 538 1449 1069 233 387 354 840 340 1277 -3 114
-6 132 -26 161 -46 64 -147 65 -193 1 -19 -27 -21 -42 -20 -172 5 -598 -208
-1125 -624 -1543 -833 -838 -2200 -827 -3019 26 -385 402 -597 931 -596 1485
1 100 22 321 33 331 3 3 34 -9 69 -27 167 -88 268 -277 238 -447 -14 -83 -40
-133 -96 -186 -38 -37 -44 -48 -44 -85 0 -35 6 -49 39 -83 l38 -41 109 -8
c141 -9 188 -21 304 -76 79 -38 109 -59 176 -127 124 -124 174 -240 174 -403
0 -65 -4 -90 -20 -115 -63 -104 38 -223 153 -179 13 5 51 33 83 62 80 71 179
134 242 154 68 23 161 16 222 -15 87 -45 197 -178 266 -324 42 -89 69 -116
122 -123 63 -8 97 18 139 107 195 412 435 479 735 203 31 -29 69 -55 83 -59
48 -12 98 3 133 41 27 29 32 42 32 82 0 27 -7 57 -15 67 -20 27 -20 160 1 240
35 136 136 268 273 358 98 64 207 98 336 105 125 6 156 15 195 59 24 28 30 44
30 80 0 39 -5 51 -34 80 -19 19 -41 34 -49 34 -19 0 -55 85 -69 161 -36 208
139 439 370 488 29 6 92 11 140 11 97 0 121 10 148 62 20 38 14 101 -13 130
-10 12 -41 31 -70 44 -107 48 -162 123 -163 223 0 76 17 125 63 177 42 48 90
77 147 89 55 12 88 33 106 67 20 38 14 101 -13 130 -39 44 -75 50 -326 55
l-238 4 -62 82 c-82 111 -319 345 -442 437 -322 241 -686 394 -1085 455 -101
15 -441 28 -525 19z"/>
</g>
</svg>
